:SAMPLES-PER-SECOND 30
:FULLY-SPECIFIED
:DEGREES
389
root  56.567 38.9123 36.1791 177.585 22.6101 177.31
RightUpLeg  6.272 -10.989 -7.32409
RightLeg  10.5948 10.3978 1.99146
RightFoot  -15.4838 -0.00622382 2.7248
RightToes  1.33877e-009 0 -3.6325e-017
Spine  7.41837 0.278518 8.06551
Spine1  5.90892 1.83275 -3.24136
HEad  -15.9247 4.39079 -9.25913
LeftShoulder1  -0.298253 4.29447 -31.6218
LeftArm  -8.10819 26.8422 -39.8517
LeftForeArm  33.7185 -5.74121 -6.15301
LeftHand  -0.132517 7.07005 -5.8828
RightShoulder  -0.837767 -5.87131 28.7818
RightArm  13.8398 -10.8816 37.1972
RightForeArm  2.59735 6.78343 6.87091
RightHand  -0.564934 3.94766 -7.28426
LeftUpLeg  -13.3244 4.44095 -0.123836
LeftLeg  29.6379 6.1716 4.11921
LeftFoot  -9.30146 0.0682195 -0.725545
LeftToes  -1.45701e-009 4.75788e-011 -4.21586e-011
390
root  56.5488 38.9049 36.1219 177.716 22.9255 177.458
RightUpLeg  6.23734 -10.6243 -7.04207
RightLeg  10.456 10.3347 1.72649
RightFoot  -15.4809 -0.0139339 2.51613
RightToes  1.33877e-009 0 -3.6325e-017
Spine  6.87345 0.398077 7.70166
Spine1  6.42464 2.13074 -4.01713
HEad  -15.4938 4.56218 -9.21587
LeftShoulder1  -0.220023 4.08465 -31.7526
LeftArm  -7.43003 29.5576 -37.4629
LeftForeArm  33.6383 -7.1401 -6.31745
LeftHand  -0.250392 9.11547 -5.77653
RightShoulder  -0.87632 -5.97191 28.9123
RightArm  13.5278 -12.0764 36.1064
RightForeArm  3.41265 7.61085 6.58192
RightHand  -0.522631 3.42518 -7.13171
LeftUpLeg  -10.554 6.35905 0.114851
LeftLeg  28.5734 7.84864 4.93102
LeftFoot  -9.29807 0.0770986 -1.09744
LeftToes  -1.45701e-009 4.75788e-011 -4.21586e-011
391
root  56.5443 38.8769 35.9767 177.677 22.5667 177.758
RightUpLeg  6.63375 -10.3283 -6.76741
RightLeg  10.5259 9.74123 1.56268
RightFoot  -15.8054 4.85392e-005 2.74624
RightToes  1.33877e-009 0 -3.6325e-017
Spine  6.25223 0.548431 7.30812
Spine1  6.98976 2.35777 -4.43242
HEad  -14.5582 4.77996 -8.81847
LeftShoulder1  -0.253908 4.18875 -30.8806
LeftArm  -6.78251 29.8205 -36.5779
LeftForeArm  32.6987 -5.88768 -6.50804
LeftHand  -0.145449 9.27813 -2.9472
RightShoulder  -0.942324 -6.15093 29.0307
RightArm  12.2429 -12.8326 35.4621
RightForeArm  3.76498 7.01596 6.01074
RightHand  -0.485822 4.05626 -6.23042
LeftUpLeg  -6.93208 8.3432 0.80865
LeftLeg  25.6091 7.43783 4.2357
LeftFoot  -9.71448 0.106098 -3.07444
LeftToes  -1.45701e-009 4.75788e-011 -4.21586e-011
392
root  56.5956 38.8789 35.7884 177.102 21.0737 177.897
RightUpLeg  8.12348 -9.63961 -6.42383
RightLeg  9.94538 7.826 0.866843
RightFoot  -15.9447 0.0274906 3.37496
RightToes  1.33877e-009 0 -3.6325e-017
Spine  6.30143 0.232689 5.74964
Spine1  7.04321 1.78314 -4.05216
HEad  -13.4187 5.16083 -8.58849
LeftShoulder1  -0.37937 4.50958 -31.6007
LeftArm  -6.02141 29.4178 -34.0768
LeftForeArm  31.4036 -5.97535 -6.61458
LeftHand  -0.162452 10.8109 -2.38446
RightShoulder  -0.91134 -6.07339 28.8899
RightArm  11.0642 -13.027 35.4121
RightForeArm  3.84415 5.65148 5.54085
RightHand  -0.478363 3.93422 -6.22089
LeftUpLeg  -3.08021 9.71452 1.4859
LeftLeg  21.2685 4.30567 2.16473
LeftFoot  -12.4864 0.0568672 -1.6254
LeftToes  -1.45701e-009 4.75788e-011 -4.21586e-011
393
root  56.4561 38.9205 35.55 177.25 19.5978 176.463
RightUpLeg  7.34339 -9.39136 -8.04419
RightLeg  11.1259 6.51573 0.871763
RightFoot  -16.2063 0.05249 3.81571
RightToes  1.33877e-009 0 -3.6325e-017
Spine  5.08758 0.269525 3.33087
Spine1  7.32064 1.51664 -4.29156
HEad  -12.3117 4.87687 -8.27291
LeftShoulder1  -0.490084 4.80234 -31.6729
LeftArm  -6.0575 27.7911 -33.2961
LeftForeArm  33.1947 -6.09269 -6.56365
LeftHand  -0.188243 8.83415 -4.57125
RightShoulder  -0.912137 -6.07874 28.8423
RightArm  8.95559 -13.1266 35.3641
RightForeArm  3.877 4.88147 4.69339
RightHand  -0.482222 3.42464 -6.59024
LeftUpLeg  -1.48755 9.26222 -0.530509
LeftLeg  16.8881 4.07624 1.62845
LeftFoot  -12.4564 0.0723853 -0.141147
LeftToes  -1.45701e-009 4.75788e-011 -4.21586e-011
394
root  56.4073 38.874 35.4052 176.697 17.7971 175.248
RightUpLeg  5.96554 -7.48826 -8.84661
RightLeg  15.1539 3.03658 0.381041
RightFoot  -16.8503 0.123553 4.89802
RightToes  1.33877e-009 0 -3.6325e-017
Spine  5.43469 0.389109 0.375007
Spine1  7.26577 1.20114 -3.7033
HEad  -11.4233 3.94526 -8.2987
LeftShoulder1  -0.468618 4.74901 -30.8677
LeftArm  -6.06252 24.6846 -34.5509
LeftForeArm  30.5418 -4.80066 -6.96338
LeftHand  0.0790435 10.6898 2.92477
RightShoulder  -0.872536 -5.99054 28.4972
RightArm  6.81513 -13.1787 36.2024
RightForeArm  2.07622 4.63861 3.97382
RightHand  -0.481045 3.37348 -6.61187
LeftUpLeg  -0.81166 7.66496 -1.97807
LeftLeg  16.0303 4.08614 1.30023
LeftFoot  -12.0212 0.0752842 0.481356
LeftToes  -1.45701e-009 4.75788e-011 -4.21586e-011
395
root  56.3042 38.7184 35.3336 176.825 15.5279 174.411
RightUpLeg  2.12759 -7.59583 -9.83981
RightLeg  23.024 0.944945 0.301395
RightFoot  -17.1494 0.246773 7.16646
RightToes  1.33877e-009 0 -3.6325e-017
Spine  6.46608 0.279728 -1.17457
Spine1  6.18265 1.01612 -4.29372
HEad  -10.3138 2.80024 -7.569
LeftShoulder1  -0.0072328 3.5351 -28.0104
LeftArm  -8.36508 22.9859 -38.5528
LeftForeArm  32.0511 -5.22394 -6.24794
LeftHand  -0.0197018 10.3129 0.907265
RightShoulder  -0.915561 -6.10457 28.6312
RightArm  4.36075 -13.347 37.6363
RightForeArm  0.0921818 5.0634 3.20563
RightHand  -0.499968 3.48193 -6.79229
LeftUpLeg  -1.84006 6.8693 -3.07204
LeftLeg  17.2528 2.52897 0.904984
LeftFoot  -12.609 0.0815166 0.524653
LeftToes  -1.45701e-009 4.75788e-011 -4.21586e-011
396
root  56.2073 38.5537 35.2852 176.672 14.8286 174.106
RightUpLeg  -2.8569 -8.42309 -10.7048
RightLeg  33.0047 1.27379 0.631762
RightFoot  -15.1368 0.254396 11.3031
RightToes  1.33877e-009 0 -3.6325e-017
Spine  7.68879 0.755214 -1.3765
Spine1  5.76892 1.58257 -5.57469
HEad  -9.55479 1.59673 -7.21462
LeftShoulder1  -0.0346571 3.60284 -28.7797
LeftArm  -8.29222 18.0369 -38.3459
LeftForeArm  31.0639 -6.40094 -6.39256
LeftHand  -0.0679964 10.7512 -0.165449
RightShoulder  -0.812904 -5.85235 27.976
RightArm  2.64572 -13.1488 39.7387
RightForeArm  -2.44675 6.30648 2.87973
RightHand  -0.535635 4.9184 -6.33075
LeftUpLeg  -2.45725 6.4815 -3.59362
LeftLeg  18.8054 2.14159 0.865563
LeftFoot  -13.5812 0.0980379 0.826417
LeftToes  -1.45701e-009 4.75788e-011 -4.21586e-011
397
root  56.193 38.4255 35.2561 176.149 14.4322 173.629
RightUpLeg  -8.24356 -8.06847 -11.4748
RightLeg  42.9546 0.854311 0.55317
RightFoot  -9.99931 -0.203617 13.7848
RightToes  1.33877e-009 0 -3.6325e-017
Spine  9.70276 1.10284 -2.59353
Spine1  4.80757 1.74589 -6.05115
HEad  -9.32957 1.50791 -6.78261
LeftShoulder1  -0.0308895 3.59069 -29.2883
LeftArm  -7.05709 13.2691 -38.6717
LeftForeArm  26.9843 -7.2 -7.31599
LeftHand  0.230887 11.0739 5.69399
RightShoulder  -0.674184 -5.47757 27.4755
RightArm  2.87082 -11.3461 41.5959
RightForeArm  -2.15775 7.71196 3.22343
RightHand  -0.527442 5.68205 -5.83849
LeftUpLeg  -2.3868 7.37511 -3.8115
LeftLeg  19.7282 0.938164 0.238515
LeftFoot  -14.186 0.11697 1.29857
LeftToes  -1.45701e-009 4.75788e-011 -4.21586e-011
398
root  56.1971 38.3528 35.0793 175.722 13.9099 173.268
RightUpLeg  -13.2638 -8.41373 -12.0864
RightLeg  50.9128 1.13954 1.19893
RightFoot  -4.51487 -0.695415 11.0471
RightToes  1.33877e-009 0 -3.6325e-017
Spine  10.4984 1.29018 -3.115
Spine1  5.05636 2.06125 -7.03451
HEad  -8.77478 1.13965 -6.48596
LeftShoulder1  0.0464511 3.37184 -29.0002
LeftArm  -6.19984 8.47684 -39.9112
LeftForeArm  24.2797 -8.20649 -7.63662
LeftHand  0.178844 9.55123 5.9771
RightShoulder  -0.755987 -5.67969 28.1094
RightArm  4.9859 -8.62176 42.3237
RightForeArm  -0.281375 10.4271 4.05054
RightHand  -0.49782 4.99841 -5.85872
LeftUpLeg  -1.85965 7.28611 -4.07389
LeftLeg  20.0997 0.529881 0.00209346
LeftFoot  -14.6711 0.12166 1.14755
LeftToes  -1.45701e-009 4.75788e-011 -4.21586e-011
399
root  56.0531 38.3205 34.7496 174.975 13.8264 173.289
RightUpLeg  -16.8735 -9.19797 -12.4918
RightLeg  55.0719 2.73166 3.77911
RightFoot  -3.48047 -0.656503 9.16622
RightToes  1.33877e-009 0 -3.6325e-017
Spine  11.6162 1.03643 -2.03042
Spine1  5.01499 2.15061 -8.54233
HEad  -7.61026 0.924958 -7.26534
LeftShoulder1  0.082405 3.26972 -29.0681
LeftArm  -5.20992 4.4365 -41.4784
LeftForeArm  22.6721 -9.44512 -7.79518
LeftHand  0.0584509 7.58055 5.14594
RightShoulder  -0.793242 -5.78935 28.0936
RightArm  7.32626 -6.19804 43.3383
RightForeArm  2.82716 14.0625 4.38352
RightHand  -0.569024 6.44811 -5.90822
LeftUpLeg  -0.452457 6.88961 -4.36813
LeftLeg  19.9484 0.955812 0.152911
LeftFoot  -15.3221 0.138603 1.34685
LeftToes  -1.45701e-009 4.75788e-011 -4.21586e-011
400
root  56.0265 38.2955 34.434 175.213 13.055 173.527
RightUpLeg  -20.2574 -10.8606 -12.0734
RightLeg  55.1644 3.696 5.29504
RightFoot  -4.42325 -0.673896 10.6182
RightToes  1.33877e-009 0 -3.6325e-017
Spine  12.0435 0.550449 -1.49606
Spine1  4.63255 1.86276 -9.18796
HEad  -6.47389 1.19259 -6.99022
LeftShoulder1  0.106969 3.19997 -29.188
LeftArm  -4.03123 -0.0680027 -42.9735
LeftForeArm  20.1114 -9.75294 -8.13519
LeftHand  0.0605512 6.83807 6.98794
RightShoulder  -0.744258 -5.64513 28.0233
RightArm  9.47629 -4.67259 44.4367
RightForeArm  4.51214 18.5639 4.34049
RightHand  -0.587342 7.05078 -5.8208
LeftUpLeg  -0.209028 5.95899 -4.57769
LeftLeg  20.007 1.31686 0.544447
LeftFoot  -15.8318 0.150104 1.40117
LeftToes  -1.45701e-009 4.75788e-011 -4.21586e-011
